STARTFONT 2.1
COMMENT "Generated by fontforge, http://fontforge.sourceforge.net"
COMMENT "forked from Proggy Tiny, http://www.proggyfonts.com"
FONT -ctrld-fixed-medium-r-normal--10-80-96-96-c-80-ISO10646-1
SIZE 10 96 96
FONTBOUNDINGBOX 6 10 0 -2
STARTPROPERTIES 18
FACE_NAME "CtrlD"
FAMILY_NAME "CtrlD"
WEIGHT_NAME "Medium"
SLANT "R"
PIXEL_SIZE 10
CHARSET_REGISTRY "ISO10646"
CHARSET_ENCODING "1"
CAP_HEIGHT 8
POINT_SIZE 80
WEIGHT 10
RESOLUTION_X 96
RESOLUTION_Y 96
X_HEIGHT 0
QUAD_WIDTH 6
DEFAULT_CHAR 8223
FONT_DESCENT 2
FONT_ASCENT 8
_GBDFED_INFO "Edited with gbdfed 1.6."
ENDPROPERTIES
CHARS 281
STARTCHAR 0
ENCODING 0
SWIDTH 450 0
DWIDTH 6 0
BBX 6 10 0 -2
BITMAP
54
80
04
80
04
80
04
80
04
A8
ENDCHAR
STARTCHAR 1
ENCODING 1
SWIDTH 450 0
DWIDTH 6 0
BBX 6 10 0 -2
BITMAP
00
00
20
70
F8
70
20
00
00
00
ENDCHAR
STARTCHAR 2
ENCODING 2
SWIDTH 450 0
DWIDTH 6 0
BBX 6 10 0 -2
BITMAP
54
A8
54
A8
54
A8
54
A8
54
A8
ENDCHAR
STARTCHAR 3
ENCODING 3
SWIDTH 450 0
DWIDTH 6 0
BBX 6 10 0 -2
BITMAP
A0
A0
E0
BC
B0
18
10
10
00
00
ENDCHAR
STARTCHAR 4
ENCODING 4
SWIDTH 450 0
DWIDTH 6 0
BBX 6 10 0 -2
BITMAP
E0
80
C0
9C
90
18
10
10
00
00
ENDCHAR
STARTCHAR 5
ENCODING 5
SWIDTH 450 0
DWIDTH 6 0
BBX 6 10 0 -2
BITMAP
60
80
80
9C
74
18
14
14
00
00
ENDCHAR
STARTCHAR 6
ENCODING 6
SWIDTH 450 0
DWIDTH 6 0
BBX 6 10 0 -2
BITMAP
80
80
80
9C
F0
18
10
10
00
00
ENDCHAR
STARTCHAR 7
ENCODING 7
SWIDTH 450 0
DWIDTH 6 0
BBX 6 10 0 -2
BITMAP
00
20
50
20
00
00
00
00
00
00
ENDCHAR
STARTCHAR 8
ENCODING 8
SWIDTH 450 0
DWIDTH 6 0
BBX 6 10 0 -2
BITMAP
00
00
20
20
F8
20
20
00
F8
00
ENDCHAR
STARTCHAR 9
ENCODING 9
SWIDTH 450 0
DWIDTH 6 0
BBX 6 10 0 -2
BITMAP
C0
A0
A0
B0
B0
10
10
1C
00
00
ENDCHAR
STARTCHAR 10
ENCODING 10
SWIDTH 450 0
DWIDTH 6 0
BBX 6 10 0 -2
BITMAP
A0
A0
A0
5C
48
08
08
08
00
00
ENDCHAR
STARTCHAR 11
ENCODING 11
SWIDTH 450 0
DWIDTH 6 0
BBX 6 10 0 -2
BITMAP
20
20
20
20
E0
00
00
00
00
00
ENDCHAR
STARTCHAR 12
ENCODING 12
SWIDTH 450 0
DWIDTH 6 0
BBX 6 10 0 -2
BITMAP
00
00
00
00
E0
20
20
20
20
20
ENDCHAR
STARTCHAR 13
ENCODING 13
SWIDTH 450 0
DWIDTH 6 0
BBX 6 10 0 -2
BITMAP
00
00
00
00
3C
20
20
20
20
20
ENDCHAR
STARTCHAR 14
ENCODING 14
SWIDTH 450 0
DWIDTH 6 0
BBX 6 10 0 -2
BITMAP
20
20
20
20
3C
00
00
00
00
00
ENDCHAR
STARTCHAR 15
ENCODING 15
SWIDTH 450 0
DWIDTH 6 0
BBX 6 10 0 -2
BITMAP
20
20
20
20
FC
20
20
20
20
20
ENDCHAR
STARTCHAR 16
ENCODING 16
SWIDTH 450 0
DWIDTH 6 0
BBX 6 10 0 -2
BITMAP
FC
00
00
00
00
00
00
00
00
00
ENDCHAR
STARTCHAR 17
ENCODING 17
SWIDTH 450 0
DWIDTH 6 0
BBX 6 10 0 -2
BITMAP
00
00
FC
00
00
00
00
00
00
00
ENDCHAR
STARTCHAR 18
ENCODING 18
SWIDTH 450 0
DWIDTH 6 0
BBX 6 10 0 -2
BITMAP
00
00
00
00
FC
00
00
00
00
00
ENDCHAR
STARTCHAR 19
ENCODING 19
SWIDTH 450 0
DWIDTH 6 0
BBX 6 10 0 -2
BITMAP
00
00
00
00
00
00
FC
00
00
00
ENDCHAR
STARTCHAR 20
ENCODING 20
SWIDTH 450 0
DWIDTH 6 0
BBX 6 10 0 -2
BITMAP
00
00
00
00
00
00
00
00
00
FC
ENDCHAR
STARTCHAR 21
ENCODING 21
SWIDTH 450 0
DWIDTH 6 0
BBX 6 10 0 -2
BITMAP
20
20
20
20
3C
20
20
20
20
20
ENDCHAR
STARTCHAR 22
ENCODING 22
SWIDTH 450 0
DWIDTH 6 0
BBX 6 10 0 -2
BITMAP
20
20
20
20
E0
20
20
20
20
20
ENDCHAR
STARTCHAR 23
ENCODING 23
SWIDTH 450 0
DWIDTH 6 0
BBX 6 10 0 -2
BITMAP
20
20
20
20
FC
00
00
00
00
00
ENDCHAR
STARTCHAR 24
ENCODING 24
SWIDTH 450 0
DWIDTH 6 0
BBX 6 10 0 -2
BITMAP
00
00
00
00
FC
20
20
20
20
20
ENDCHAR
STARTCHAR 25
ENCODING 25
SWIDTH 450 0
DWIDTH 6 0
BBX 6 10 0 -2
BITMAP
20
20
20
20
20
20
20
20
20
20
ENDCHAR
STARTCHAR 26
ENCODING 26
SWIDTH 450 0
DWIDTH 6 0
BBX 6 10 0 -2
BITMAP
00
08
30
C0
30
08
00
F8
00
00
ENDCHAR
STARTCHAR 27
ENCODING 27
SWIDTH 450 0
DWIDTH 6 0
BBX 6 10 0 -2
BITMAP
00
80
60
18
60
80
00
F8
00
00
ENDCHAR
STARTCHAR 28
ENCODING 28
SWIDTH 450 0
DWIDTH 6 0
BBX 6 10 0 -2
BITMAP
00
00
00
F8
50
50
50
50
00
00
ENDCHAR
STARTCHAR 29
ENCODING 29
SWIDTH 450 0
DWIDTH 6 0
BBX 6 10 0 -2
BITMAP
00
00
10
F8
20
F8
40
00
00
00
ENDCHAR
STARTCHAR 30
ENCODING 30
SWIDTH 450 0
DWIDTH 6 0
BBX 6 10 0 -2
BITMAP
18
20
20
78
20
40
80
F8
00
00
ENDCHAR
STARTCHAR 31
ENCODING 31
SWIDTH 450 0
DWIDTH 6 0
BBX 6 10 0 -2
BITMAP
00
00
00
00
30
00
00
00
00
00
ENDCHAR
STARTCHAR 32
ENCODING 32
SWIDTH 450 0
DWIDTH 6 0
BBX 6 10 0 -2
BITMAP
00
00
00
00
00
00
00
00
00
00
ENDCHAR
STARTCHAR 33
ENCODING 33
SWIDTH 450 0
DWIDTH 6 0
BBX 6 10 0 -2
BITMAP
00
20
20
20
20
20
00
20
00
00
ENDCHAR
STARTCHAR 34
ENCODING 34
SWIDTH 450 0
DWIDTH 6 0
BBX 6 10 0 -2
BITMAP
50
50
50
00
00
00
00
00
00
00
ENDCHAR
STARTCHAR 35
ENCODING 35
SWIDTH 450 0
DWIDTH 6 0
BBX 6 10 0 -2
BITMAP
00
00
50
F8
50
50
F8
50
00
00
ENDCHAR
STARTCHAR 36
ENCODING 36
SWIDTH 450 0
DWIDTH 6 0
BBX 6 10 0 -2
BITMAP
00
20
78
A0
70
28
F0
20
00
00
ENDCHAR
STARTCHAR 37
ENCODING 37
SWIDTH 450 0
DWIDTH 6 0
BBX 6 10 0 -2
BITMAP
00
00
44
A8
50
28
54
88
00
00
ENDCHAR
STARTCHAR 38
ENCODING 38
SWIDTH 450 0
DWIDTH 6 0
BBX 6 10 0 -2
BITMAP
00
60
90
90
60
94
88
74
00
00
ENDCHAR
STARTCHAR 39
ENCODING 39
SWIDTH 450 0
DWIDTH 6 0
BBX 6 10 0 -2
BITMAP
20
20
20
00
00
00
00
00
00
00
ENDCHAR
STARTCHAR 40
ENCODING 40
SWIDTH 450 0
DWIDTH 6 0
BBX 6 10 0 -2
BITMAP
10
20
40
40
40
40
40
20
10
00
ENDCHAR
STARTCHAR 41
ENCODING 41
SWIDTH 450 0
DWIDTH 6 0
BBX 6 10 0 -2
BITMAP
40
20
10
10
10
10
10
20
40
00
ENDCHAR
STARTCHAR 42
ENCODING 42
SWIDTH 450 0
DWIDTH 6 0
BBX 6 10 0 -2
BITMAP
00
00
20
A8
70
A8
20
00
00
00
ENDCHAR
STARTCHAR 43
ENCODING 43
SWIDTH 450 0
DWIDTH 6 0
BBX 6 10 0 -2
BITMAP
00
00
20
20
F8
20
20
00
00
00
ENDCHAR
STARTCHAR 44
ENCODING 44
SWIDTH 450 0
DWIDTH 6 0
BBX 6 10 0 -2
BITMAP
00
00
00
00
00
00
00
20
40
00
ENDCHAR
STARTCHAR 45
ENCODING 45
SWIDTH 450 0
DWIDTH 6 0
BBX 6 10 0 -2
BITMAP
00
00
00
00
F8
00
00
00
00
00
ENDCHAR
STARTCHAR 46
ENCODING 46
SWIDTH 450 0
DWIDTH 6 0
BBX 6 10 0 -2
BITMAP
00
00
00
00
00
00
00
20
00
00
ENDCHAR
STARTCHAR 47
ENCODING 47
SWIDTH 450 0
DWIDTH 6 0
BBX 6 10 0 -2
BITMAP
08
08
10
10
20
20
40
40
80
00
ENDCHAR
STARTCHAR 48
ENCODING 48
SWIDTH 450 0
DWIDTH 6 0
BBX 6 10 0 -2
BITMAP
00
70
88
98
A8
C8
88
70
00
00
ENDCHAR
STARTCHAR 49
ENCODING 49
SWIDTH 450 0
DWIDTH 6 0
BBX 6 10 0 -2
BITMAP
00
20
60
20
20
20
20
70
00
00
ENDCHAR
STARTCHAR 50
ENCODING 50
SWIDTH 450 0
DWIDTH 6 0
BBX 6 10 0 -2
BITMAP
00
70
88
08
30
40
80
F8
00
00
ENDCHAR
STARTCHAR 51
ENCODING 51
SWIDTH 450 0
DWIDTH 6 0
BBX 6 10 0 -2
BITMAP
00
70
88
08
30
08
88
70
00
00
ENDCHAR
STARTCHAR 52
ENCODING 52
SWIDTH 450 0
DWIDTH 6 0
BBX 6 10 0 -2
BITMAP
00
10
30
50
90
F8
10
10
00
00
ENDCHAR
STARTCHAR 53
ENCODING 53
SWIDTH 450 0
DWIDTH 6 0
BBX 6 10 0 -2
BITMAP
00
F8
80
80
F0
08
88
70
00
00
ENDCHAR
STARTCHAR 54
ENCODING 54
SWIDTH 450 0
DWIDTH 6 0
BBX 6 10 0 -2
BITMAP
00
30
40
80
F0
88
88
70
00
00
ENDCHAR
STARTCHAR 55
ENCODING 55
SWIDTH 450 0
DWIDTH 6 0
BBX 6 10 0 -2
BITMAP
00
F8
08
10
10
20
20
40
00
00
ENDCHAR
STARTCHAR 56
ENCODING 56
SWIDTH 450 0
DWIDTH 6 0
BBX 6 10 0 -2
BITMAP
00
70
88
88
70
88
88
70
00
00
ENDCHAR
STARTCHAR 57
ENCODING 57
SWIDTH 450 0
DWIDTH 6 0
BBX 6 10 0 -2
BITMAP
00
70
88
88
78
08
10
60
00
00
ENDCHAR
STARTCHAR 58
ENCODING 58
SWIDTH 450 0
DWIDTH 6 0
BBX 6 10 0 -2
BITMAP
00
00
00
20
00
00
20
00
00
00
ENDCHAR
STARTCHAR 59
ENCODING 59
SWIDTH 450 0
DWIDTH 6 0
BBX 6 10 0 -2
BITMAP
00
00
00
20
00
00
20
40
00
00
ENDCHAR
STARTCHAR 60
ENCODING 60
SWIDTH 450 0
DWIDTH 6 0
BBX 6 10 0 -2
BITMAP
00
00
08
30
C0
30
08
00
00
00
ENDCHAR
STARTCHAR 61
ENCODING 61
SWIDTH 450 0
DWIDTH 6 0
BBX 6 10 0 -2
BITMAP
00
00
00
F8
00
F8
00
00
00
00
ENDCHAR
STARTCHAR 62
ENCODING 62
SWIDTH 450 0
DWIDTH 6 0
BBX 6 10 0 -2
BITMAP
00
00
80
60
18
60
80
00
00
00
ENDCHAR
STARTCHAR 63
ENCODING 63
SWIDTH 450 0
DWIDTH 6 0
BBX 6 10 0 -2
BITMAP
00
70
88
08
10
20
00
20
00
00
ENDCHAR
STARTCHAR 64
ENCODING 64
SWIDTH 450 0
DWIDTH 6 0
BBX 6 10 0 -2
BITMAP
00
78
84
B4
B4
BC
80
7C
00
00
ENDCHAR
STARTCHAR 65
ENCODING 65
SWIDTH 450 0
DWIDTH 6 0
BBX 6 10 0 -2
BITMAP
00
20
20
50
50
70
88
88
00
00
ENDCHAR
STARTCHAR 66
ENCODING 66
SWIDTH 450 0
DWIDTH 6 0
BBX 6 10 0 -2
BITMAP
00
F0
88
88
F0
88
88
F0
00
00
ENDCHAR
STARTCHAR 67
ENCODING 67
SWIDTH 450 0
DWIDTH 6 0
BBX 6 10 0 -2
BITMAP
00
70
88
80
80
80
88
70
00
00
ENDCHAR
STARTCHAR 68
ENCODING 68
SWIDTH 450 0
DWIDTH 6 0
BBX 6 10 0 -2
BITMAP
00
E0
90
88
88
88
90
E0
00
00
ENDCHAR
STARTCHAR 69
ENCODING 69
SWIDTH 450 0
DWIDTH 6 0
BBX 6 10 0 -2
BITMAP
00
F8
80
80
F0
80
80
F8
00
00
ENDCHAR
STARTCHAR 70
ENCODING 70
SWIDTH 450 0
DWIDTH 6 0
BBX 6 10 0 -2
BITMAP
00
F8
80
80
F0
80
80
80
00
00
ENDCHAR
STARTCHAR 71
ENCODING 71
SWIDTH 450 0
DWIDTH 6 0
BBX 6 10 0 -2
BITMAP
00
70
88
80
98
88
88
78
00
00
ENDCHAR
STARTCHAR 72
ENCODING 72
SWIDTH 450 0
DWIDTH 6 0
BBX 6 10 0 -2
BITMAP
00
88
88
88
F8
88
88
88
00
00
ENDCHAR
STARTCHAR 73
ENCODING 73
SWIDTH 450 0
DWIDTH 6 0
BBX 6 10 0 -2
BITMAP
00
70
20
20
20
20
20
70
00
00
ENDCHAR
STARTCHAR 74
ENCODING 74
SWIDTH 450 0
DWIDTH 6 0
BBX 6 10 0 -2
BITMAP
00
38
08
08
08
08
08
F0
00
00
ENDCHAR
STARTCHAR 75
ENCODING 75
SWIDTH 450 0
DWIDTH 6 0
BBX 6 10 0 -2
BITMAP
00
88
90
A0
C0
A0
90
88
00
00
ENDCHAR
STARTCHAR 76
ENCODING 76
SWIDTH 450 0
DWIDTH 6 0
BBX 6 10 0 -2
BITMAP
00
80
80
80
80
80
80
F8
00
00
ENDCHAR
STARTCHAR 77
ENCODING 77
SWIDTH 450 0
DWIDTH 6 0
BBX 6 10 0 -2
BITMAP
00
88
88
D8
D8
A8
A8
88
00
00
ENDCHAR
STARTCHAR 78
ENCODING 78
SWIDTH 450 0
DWIDTH 6 0
BBX 6 10 0 -2
BITMAP
00
C8
C8
A8
A8
A8
98
98
00
00
ENDCHAR
STARTCHAR 79
ENCODING 79
SWIDTH 450 0
DWIDTH 6 0
BBX 6 10 0 -2
BITMAP
00
70
88
88
88
88
88
70
00
00
ENDCHAR
STARTCHAR 80
ENCODING 80
SWIDTH 450 0
DWIDTH 6 0
BBX 6 10 0 -2
BITMAP
00
F0
88
88
F0
80
80
80
00
00
ENDCHAR
STARTCHAR 81
ENCODING 81
SWIDTH 450 0
DWIDTH 6 0
BBX 6 10 0 -2
BITMAP
00
70
88
88
88
88
98
78
00
00
ENDCHAR
STARTCHAR 82
ENCODING 82
SWIDTH 450 0
DWIDTH 6 0
BBX 6 10 0 -2
BITMAP
00
F0
88
88
F0
88
88
88
00
00
ENDCHAR
STARTCHAR 83
ENCODING 83
SWIDTH 450 0
DWIDTH 6 0
BBX 6 10 0 -2
BITMAP
00
70
88
80
70
08
88
70
00
00
ENDCHAR
STARTCHAR 84
ENCODING 84
SWIDTH 450 0
DWIDTH 6 0
BBX 6 10 0 -2
BITMAP
00
F8
20
20
20
20
20
20
00
00
ENDCHAR
STARTCHAR 85
ENCODING 85
SWIDTH 450 0
DWIDTH 6 0
BBX 6 10 0 -2
BITMAP
00
88
88
88
88
88
88
70
00
00
ENDCHAR
STARTCHAR 86
ENCODING 86
SWIDTH 450 0
DWIDTH 6 0
BBX 6 10 0 -2
BITMAP
00
88
88
88
50
50
20
20
00
00
ENDCHAR
STARTCHAR 87
ENCODING 87
SWIDTH 450 0
DWIDTH 6 0
BBX 6 10 0 -2
BITMAP
00
88
A8
A8
A8
50
50
50
00
00
ENDCHAR
STARTCHAR 88
ENCODING 88
SWIDTH 450 0
DWIDTH 6 0
BBX 6 10 0 -2
BITMAP
00
88
88
50
20
50
88
88
00
00
ENDCHAR
STARTCHAR 89
ENCODING 89
SWIDTH 450 0
DWIDTH 6 0
BBX 6 10 0 -2
BITMAP
00
88
88
88
70
20
20
20
00
00
ENDCHAR
STARTCHAR 90
ENCODING 90
SWIDTH 450 0
DWIDTH 6 0
BBX 6 10 0 -2
BITMAP
00
F8
08
10
20
40
80
F8
00
00
ENDCHAR
STARTCHAR 91
ENCODING 91
SWIDTH 450 0
DWIDTH 6 0
BBX 6 10 0 -2
BITMAP
70
40
40
40
40
40
40
40
70
00
ENDCHAR
STARTCHAR 92
ENCODING 92
SWIDTH 450 0
DWIDTH 6 0
BBX 6 10 0 -2
BITMAP
80
80
40
40
20
20
10
10
08
00
ENDCHAR
STARTCHAR 93
ENCODING 93
SWIDTH 450 0
DWIDTH 6 0
BBX 6 10 0 -2
BITMAP
70
10
10
10
10
10
10
10
70
00
ENDCHAR
STARTCHAR 94
ENCODING 94
SWIDTH 450 0
DWIDTH 6 0
BBX 6 10 0 -2
BITMAP
00
20
50
88
00
00
00
00
00
00
ENDCHAR
STARTCHAR 95
ENCODING 95
SWIDTH 450 0
DWIDTH 6 0
BBX 6 10 0 -2
BITMAP
00
00
00
00
00
00
00
00
FC
00
ENDCHAR
STARTCHAR 96
ENCODING 96
SWIDTH 450 0
DWIDTH 6 0
BBX 6 10 0 -2
BITMAP
00
20
10
00
00
00
00
00
00
00
ENDCHAR
STARTCHAR 97
ENCODING 97
SWIDTH 450 0
DWIDTH 6 0
BBX 6 10 0 -2
BITMAP
00
00
00
70
08
78
88
78
00
00
ENDCHAR
STARTCHAR 98
ENCODING 98
SWIDTH 450 0
DWIDTH 6 0
BBX 6 10 0 -2
BITMAP
80
80
80
F0
88
88
88
F0
00
00
ENDCHAR
STARTCHAR 99
ENCODING 99
SWIDTH 450 0
DWIDTH 6 0
BBX 6 10 0 -2
BITMAP
00
00
00
78
80
80
80
78
00
00
ENDCHAR
STARTCHAR 100
ENCODING 100
SWIDTH 450 0
DWIDTH 6 0
BBX 6 10 0 -2
BITMAP
08
08
08
78
88
88
88
78
00
00
ENDCHAR
STARTCHAR 101
ENCODING 101
SWIDTH 450 0
DWIDTH 6 0
BBX 6 10 0 -2
BITMAP
00
00
00
70
88
F8
80
78
00
00
ENDCHAR
STARTCHAR 102
ENCODING 102
SWIDTH 450 0
DWIDTH 6 0
BBX 6 10 0 -2
BITMAP
38
40
40
F0
40
40
40
40
00
00
ENDCHAR
STARTCHAR 103
ENCODING 103
SWIDTH 450 0
DWIDTH 6 0
BBX 6 10 0 -2
BITMAP
00
00
00
70
88
88
88
78
08
70
ENDCHAR
STARTCHAR 104
ENCODING 104
SWIDTH 450 0
DWIDTH 6 0
BBX 6 10 0 -2
BITMAP
80
80
80
F0
88
88
88
88
00
00
ENDCHAR
STARTCHAR 105
ENCODING 105
SWIDTH 450 0
DWIDTH 6 0
BBX 6 10 0 -2
BITMAP
00
20
00
60
20
20
20
20
00
00
ENDCHAR
STARTCHAR 106
ENCODING 106
SWIDTH 450 0
DWIDTH 6 0
BBX 6 10 0 -2
BITMAP
00
10
00
30
10
10
10
10
10
E0
ENDCHAR
STARTCHAR 107
ENCODING 107
SWIDTH 450 0
DWIDTH 6 0
BBX 6 10 0 -2
BITMAP
40
40
40
48
50
60
50
48
00
00
ENDCHAR
STARTCHAR 108
ENCODING 108
SWIDTH 450 0
DWIDTH 6 0
BBX 6 10 0 -2
BITMAP
60
20
20
20
20
20
20
20
00
00
ENDCHAR
STARTCHAR 109
ENCODING 109
SWIDTH 450 0
DWIDTH 6 0
BBX 6 10 0 -2
BITMAP
00
00
00
D0
A8
A8
A8
A8
00
00
ENDCHAR
STARTCHAR 110
ENCODING 110
SWIDTH 450 0
DWIDTH 6 0
BBX 6 10 0 -2
BITMAP
00
00
00
F0
88
88
88
88
00
00
ENDCHAR
STARTCHAR 111
ENCODING 111
SWIDTH 450 0
DWIDTH 6 0
BBX 6 10 0 -2
BITMAP
00
00
00
70
88
88
88
70
00
00
ENDCHAR
STARTCHAR 112
ENCODING 112
SWIDTH 450 0
DWIDTH 6 0
BBX 6 10 0 -2
BITMAP
00
00
00
F0
88
88
88
F0
80
80
ENDCHAR
STARTCHAR 113
ENCODING 113
SWIDTH 450 0
DWIDTH 6 0
BBX 6 10 0 -2
BITMAP
00
00
00
78
88
88
88
78
08
08
ENDCHAR
STARTCHAR 114
ENCODING 114
SWIDTH 450 0
DWIDTH 6 0
BBX 6 10 0 -2
BITMAP
00
00
00
B0
C8
80
80
80
00
00
ENDCHAR
STARTCHAR 115
ENCODING 115
SWIDTH 450 0
DWIDTH 6 0
BBX 6 10 0 -2
BITMAP
00
00
00
78
80
70
08
F0
00
00
ENDCHAR
STARTCHAR 116
ENCODING 116
SWIDTH 450 0
DWIDTH 6 0
BBX 6 10 0 -2
BITMAP
00
40
40
70
40
40
40
38
00
00
ENDCHAR
STARTCHAR 117
ENCODING 117
SWIDTH 450 0
DWIDTH 6 0
BBX 6 10 0 -2
BITMAP
00
00
00
88
88
88
88
78
00
00
ENDCHAR
STARTCHAR 118
ENCODING 118
SWIDTH 450 0
DWIDTH 6 0
BBX 6 10 0 -2
BITMAP
00
00
00
88
88
50
50
20
00
00
ENDCHAR
STARTCHAR 119
ENCODING 119
SWIDTH 450 0
DWIDTH 6 0
BBX 6 10 0 -2
BITMAP
00
00
00
88
A8
A8
50
50
00
00
ENDCHAR
STARTCHAR 120
ENCODING 120
SWIDTH 450 0
DWIDTH 6 0
BBX 6 10 0 -2
BITMAP
00
00
00
88
50
20
50
88
00
00
ENDCHAR
STARTCHAR 121
ENCODING 121
SWIDTH 450 0
DWIDTH 6 0
BBX 6 10 0 -2
BITMAP
00
00
00
88
88
88
88
78
08
70
ENDCHAR
STARTCHAR 122
ENCODING 122
SWIDTH 450 0
DWIDTH 6 0
BBX 6 10 0 -2
BITMAP
00
00
00
F8
10
20
40
F8
00
00
ENDCHAR
STARTCHAR 123
ENCODING 123
SWIDTH 450 0
DWIDTH 6 0
BBX 6 10 0 -2
BITMAP
10
20
20
20
40
20
20
20
10
00
ENDCHAR
STARTCHAR 124
ENCODING 124
SWIDTH 450 0
DWIDTH 6 0
BBX 6 10 0 -2
BITMAP
20
20
20
20
20
20
20
20
20
00
ENDCHAR
STARTCHAR 125
ENCODING 125
SWIDTH 450 0
DWIDTH 6 0
BBX 6 10 0 -2
BITMAP
40
20
20
20
10
20
20
20
40
00
ENDCHAR
STARTCHAR 126
ENCODING 126
SWIDTH 450 0
DWIDTH 6 0
BBX 6 10 0 -2
BITMAP
00
00
00
00
64
98
00
00
00
00
ENDCHAR
STARTCHAR 127
ENCODING 127
SWIDTH 450 0
DWIDTH 6 0
BBX 6 10 0 -2
BITMAP
00
00
00
00
00
00
00
00
00
00
ENDCHAR
STARTCHAR 128
ENCODING 128
SWIDTH 450 0
DWIDTH 6 0
BBX 6 10 0 -2
BITMAP
00
38
44
F0
40
F0
44
38
00
00
ENDCHAR
STARTCHAR 129
ENCODING 129
SWIDTH 450 0
DWIDTH 6 0
BBX 6 10 0 -2
BITMAP
00
00
00
00
00
00
00
00
00
00
ENDCHAR
STARTCHAR 130
ENCODING 130
SWIDTH 450 0
DWIDTH 6 0
BBX 6 10 0 -2
BITMAP
00
00
00
00
00
00
00
10
20
00
ENDCHAR
STARTCHAR 131
ENCODING 131
SWIDTH 450 0
DWIDTH 6 0
BBX 6 10 0 -2
BITMAP
18
20
20
70
20
20
20
20
20
40
ENDCHAR
STARTCHAR 132
ENCODING 132
SWIDTH 450 0
DWIDTH 6 0
BBX 6 10 0 -2
BITMAP
00
00
00
00
00
00
00
50
50
00
ENDCHAR
STARTCHAR 133
ENCODING 133
SWIDTH 450 0
DWIDTH 6 0
BBX 6 10 0 -2
BITMAP
00
00
00
00
00
00
00
A8
00
00
ENDCHAR
STARTCHAR 134
ENCODING 134
SWIDTH 450 0
DWIDTH 6 0
BBX 6 10 0 -2
BITMAP
20
20
F8
20
20
20
20
20
20
00
ENDCHAR
STARTCHAR 135
ENCODING 135
SWIDTH 450 0
DWIDTH 6 0
BBX 6 10 0 -2
BITMAP
20
20
F8
20
F8
20
20
20
20
00
ENDCHAR
STARTCHAR 136
ENCODING 136
SWIDTH 450 0
DWIDTH 6 0
BBX 6 10 0 -2
BITMAP
20
50
00
00
00
00
00
00
00
00
ENDCHAR
STARTCHAR 137
ENCODING 137
SWIDTH 450 0
DWIDTH 6 0
BBX 6 10 0 -2
BITMAP
00
00
48
50
20
54
94
00
00
00
ENDCHAR
STARTCHAR 138
ENCODING 138
SWIDTH 450 0
DWIDTH 6 0
BBX 6 10 0 -2
BITMAP
50
20
00
78
80
F8
08
F0
00
00
ENDCHAR
STARTCHAR 139
ENCODING 139
SWIDTH 450 0
DWIDTH 6 0
BBX 6 10 0 -2
BITMAP
00
00
00
10
20
40
20
10
00
00
ENDCHAR
STARTCHAR 140
ENCODING 140
SWIDTH 450 0
DWIDTH 6 0
BBX 6 10 0 -2
BITMAP
00
6C
90
90
98
90
90
6C
00
00
ENDCHAR
STARTCHAR 141
ENCODING 141
SWIDTH 450 0
DWIDTH 6 0
BBX 6 10 0 -2
BITMAP
00
00
00
00
00
00
00
00
00
00
ENDCHAR
STARTCHAR 142
ENCODING 142
SWIDTH 450 0
DWIDTH 6 0
BBX 6 10 0 -2
BITMAP
50
20
00
F8
10
20
40
F8
00
00
ENDCHAR
STARTCHAR 143
ENCODING 143
SWIDTH 450 0
DWIDTH 6 0
BBX 6 10 0 -2
BITMAP
00
00
00
00
00
00
00
00
00
00
ENDCHAR
STARTCHAR 144
ENCODING 144
SWIDTH 450 0
DWIDTH 6 0
BBX 6 10 0 -2
BITMAP
00
00
00
00
00
00
00
00
00
00
ENDCHAR
STARTCHAR 145
ENCODING 145
SWIDTH 450 0
DWIDTH 6 0
BBX 6 10 0 -2
BITMAP
20
20
10
00
00
00
00
00
00
00
ENDCHAR
STARTCHAR 146
ENCODING 146
SWIDTH 450 0
DWIDTH 6 0
BBX 6 10 0 -2
BITMAP
10
10
20
00
00
00
00
00
00
00
ENDCHAR
STARTCHAR 147
ENCODING 147
SWIDTH 450 0
DWIDTH 6 0
BBX 6 10 0 -2
BITMAP
50
50
28
00
00
00
00
00
00
00
ENDCHAR
STARTCHAR 148
ENCODING 148
SWIDTH 450 0
DWIDTH 6 0
BBX 6 10 0 -2
BITMAP
28
28
50
00
00
00
00
00
00
00
ENDCHAR
STARTCHAR 149
ENCODING 149
SWIDTH 450 0
DWIDTH 6 0
BBX 6 10 0 -2
BITMAP
00
00
00
00
30
30
00
00
00
00
ENDCHAR
STARTCHAR 150
ENCODING 150
SWIDTH 450 0
DWIDTH 6 0
BBX 6 10 0 -2
BITMAP
00
00
00
00
00
F8
00
00
00
00
ENDCHAR
STARTCHAR 151
ENCODING 151
SWIDTH 450 0
DWIDTH 6 0
BBX 6 10 0 -2
BITMAP
00
00
00
00
00
FC
00
00
00
00
ENDCHAR
STARTCHAR 152
ENCODING 152
SWIDTH 450 0
DWIDTH 6 0
BBX 6 10 0 -2
BITMAP
00
00
00
00
28
50
00
00
00
00
ENDCHAR
STARTCHAR 153
ENCODING 153
SWIDTH 450 0
DWIDTH 6 0
BBX 6 10 0 -2
BITMAP
00
00
00
FC
5C
54
54
00
00
00
ENDCHAR
STARTCHAR 154
ENCODING 154
SWIDTH 450 0
DWIDTH 6 0
BBX 6 10 0 -2
BITMAP
50
20
00
78
80
70
08
F0
00
00
ENDCHAR
STARTCHAR 155
ENCODING 155
SWIDTH 450 0
DWIDTH 6 0
BBX 6 10 0 -2
BITMAP
00
00
00
20
10
08
10
20
00
00
ENDCHAR
STARTCHAR 156
ENCODING 156
SWIDTH 450 0
DWIDTH 6 0
BBX 6 10 0 -2
BITMAP
00
00
00
6C
90
98
90
6C
00
00
ENDCHAR
STARTCHAR 157
ENCODING 157
SWIDTH 450 0
DWIDTH 6 0
BBX 6 10 0 -2
BITMAP
00
00
00
00
00
00
00
00
00
00
ENDCHAR
STARTCHAR 158
ENCODING 158
SWIDTH 450 0
DWIDTH 6 0
BBX 6 10 0 -2
BITMAP
50
20
00
F8
10
20
40
F8
00
00
ENDCHAR
STARTCHAR 159
ENCODING 159
SWIDTH 450 0
DWIDTH 6 0
BBX 6 10 0 -2
BITMAP
50
00
88
88
88
70
20
20
00
00
ENDCHAR
STARTCHAR 160
ENCODING 160
SWIDTH 450 0
DWIDTH 6 0
BBX 6 10 0 -2
BITMAP
00
00
00
00
00
00
00
00
00
00
ENDCHAR
STARTCHAR 161
ENCODING 161
SWIDTH 450 0
DWIDTH 6 0
BBX 6 10 0 -2
BITMAP
00
20
00
20
20
20
20
20
00
00
ENDCHAR
STARTCHAR 162
ENCODING 162
SWIDTH 450 0
DWIDTH 6 0
BBX 6 10 0 -2
BITMAP
00
00
10
38
50
50
38
10
00
00
ENDCHAR
STARTCHAR 163
ENCODING 163
SWIDTH 450 0
DWIDTH 6 0
BBX 6 10 0 -2
BITMAP
18
20
20
78
20
40
80
F8
00
00
ENDCHAR
STARTCHAR 164
ENCODING 164
SWIDTH 450 0
DWIDTH 6 0
BBX 6 10 0 -2
BITMAP
00
00
84
78
48
48
78
84
00
00
ENDCHAR
STARTCHAR 165
ENCODING 165
SWIDTH 450 0
DWIDTH 6 0
BBX 6 10 0 -2
BITMAP
00
88
88
70
20
F8
20
20
00
00
ENDCHAR
STARTCHAR 166
ENCODING 166
SWIDTH 450 0
DWIDTH 6 0
BBX 6 10 0 -2
BITMAP
20
20
20
20
00
20
20
20
20
00
ENDCHAR
STARTCHAR 167
ENCODING 167
SWIDTH 450 0
DWIDTH 6 0
BBX 6 10 0 -2
BITMAP
18
20
20
70
88
88
70
20
20
C0
ENDCHAR
STARTCHAR 168
ENCODING 168
SWIDTH 450 0
DWIDTH 6 0
BBX 6 10 0 -2
BITMAP
00
50
00
00
00
00
00
00
00
00
ENDCHAR
STARTCHAR 169
ENCODING 169
SWIDTH 450 0
DWIDTH 6 0
BBX 6 10 0 -2
BITMAP
00
78
84
B4
A4
B4
84
78
00
00
ENDCHAR
STARTCHAR 170
ENCODING 170
SWIDTH 450 0
DWIDTH 6 0
BBX 6 10 0 -2
BITMAP
20
10
30
50
30
00
00
00
00
00
ENDCHAR
STARTCHAR 171
ENCODING 171
SWIDTH 450 0
DWIDTH 6 0
BBX 6 10 0 -2
BITMAP
00
00
00
24
48
90
48
24
00
00
ENDCHAR
STARTCHAR 172
ENCODING 172
SWIDTH 450 0
DWIDTH 6 0
BBX 6 10 0 -2
BITMAP
00
00
00
00
78
08
08
08
00
00
ENDCHAR
STARTCHAR 173
ENCODING 173
SWIDTH 450 0
DWIDTH 6 0
BBX 6 10 0 -2
BITMAP
00
00
00
00
00
00
00
00
00
00
ENDCHAR
STARTCHAR 174
ENCODING 174
SWIDTH 450 0
DWIDTH 6 0
BBX 6 10 0 -2
BITMAP
00
78
84
94
A4
A4
84
78
00
00
ENDCHAR
STARTCHAR 175
ENCODING 175
SWIDTH 450 0
DWIDTH 6 0
BBX 6 10 0 -2
BITMAP
00
F8
00
00
00
00
00
00
00
00
ENDCHAR
STARTCHAR 176
ENCODING 176
SWIDTH 450 0
DWIDTH 6 0
BBX 6 10 0 -2
BITMAP
00
20
50
20
00
00
00
00
00
00
ENDCHAR
STARTCHAR 177
ENCODING 177
SWIDTH 450 0
DWIDTH 6 0
BBX 6 10 0 -2
BITMAP
00
00
20
20
F8
20
20
F8
00
00
ENDCHAR
STARTCHAR 178
ENCODING 178
SWIDTH 450 0
DWIDTH 6 0
BBX 6 10 0 -2
BITMAP
60
10
20
40
70
00
00
00
00
00
ENDCHAR
STARTCHAR 179
ENCODING 179
SWIDTH 450 0
DWIDTH 6 0
BBX 6 10 0 -2
BITMAP
60
10
60
10
60
00
00
00
00
00
ENDCHAR
STARTCHAR 180
ENCODING 180
SWIDTH 450 0
DWIDTH 6 0
BBX 6 10 0 -2
BITMAP
10
20
00
00
00
00
00
00
00
00
ENDCHAR
STARTCHAR 181
ENCODING 181
SWIDTH 450 0
DWIDTH 6 0
BBX 6 10 0 -2
BITMAP
00
00
00
48
48
48
48
74
40
80
ENDCHAR
STARTCHAR 182
ENCODING 182
SWIDTH 450 0
DWIDTH 6 0
BBX 6 10 0 -2
BITMAP
00
7C
E8
E8
68
28
28
28
28
28
ENDCHAR
STARTCHAR 183
ENCODING 183
SWIDTH 450 0
DWIDTH 6 0
BBX 6 10 0 -2
BITMAP
00
00
00
00
20
00
00
00
00
00
ENDCHAR
STARTCHAR 184
ENCODING 184
SWIDTH 450 0
DWIDTH 6 0
BBX 6 10 0 -2
BITMAP
00
00
00
00
00
00
00
30
10
20
ENDCHAR
STARTCHAR 185
ENCODING 185
SWIDTH 450 0
DWIDTH 6 0
BBX 6 10 0 -2
BITMAP
20
60
20
20
70
00
00
00
00
00
ENDCHAR
STARTCHAR 186
ENCODING 186
SWIDTH 450 0
DWIDTH 6 0
BBX 6 10 0 -2
BITMAP
20
50
50
20
00
00
00
00
00
00
ENDCHAR
STARTCHAR 187
ENCODING 187
SWIDTH 450 0
DWIDTH 6 0
BBX 6 10 0 -2
BITMAP
00
00
00
90
48
24
48
90
00
00
ENDCHAR
STARTCHAR 188
ENCODING 188
SWIDTH 450 0
DWIDTH 6 0
BBX 6 10 0 -2
BITMAP
08
88
90
90
24
2C
5C
44
80
00
ENDCHAR
STARTCHAR 189
ENCODING 189
SWIDTH 450 0
DWIDTH 6 0
BBX 6 10 0 -2
BITMAP
08
88
90
90
2C
24
48
4C
80
00
ENDCHAR
STARTCHAR 190
ENCODING 190
SWIDTH 450 0
DWIDTH 6 0
BBX 6 10 0 -2
BITMAP
88
48
D0
50
A4
2C
5C
44
80
00
ENDCHAR
STARTCHAR 191
ENCODING 191
SWIDTH 450 0
DWIDTH 6 0
BBX 6 10 0 -2
BITMAP
00
20
00
20
10
08
88
70
00
00
ENDCHAR
STARTCHAR 192
ENCODING 192
SWIDTH 450 0
DWIDTH 6 0
BBX 6 10 0 -2
BITMAP
40
20
00
20
50
70
88
88
00
00
ENDCHAR
STARTCHAR 193
ENCODING 193
SWIDTH 450 0
DWIDTH 6 0
BBX 6 10 0 -2
BITMAP
20
40
00
20
50
70
88
88
00
00
ENDCHAR
STARTCHAR 194
ENCODING 194
SWIDTH 450 0
DWIDTH 6 0
BBX 6 10 0 -2
BITMAP
20
50
00
20
50
70
88
88
00
00
ENDCHAR
STARTCHAR 195
ENCODING 195
SWIDTH 450 0
DWIDTH 6 0
BBX 6 10 0 -2
BITMAP
28
50
00
20
50
70
88
88
00
00
ENDCHAR
STARTCHAR 196
ENCODING 196
SWIDTH 450 0
DWIDTH 6 0
BBX 6 10 0 -2
BITMAP
00
50
00
20
50
70
88
88
00
00
ENDCHAR
STARTCHAR 197
ENCODING 197
SWIDTH 450 0
DWIDTH 6 0
BBX 6 10 0 -2
BITMAP
20
50
20
20
50
70
88
88
00
00
ENDCHAR
STARTCHAR 198
ENCODING 198
SWIDTH 450 0
DWIDTH 6 0
BBX 6 10 0 -2
BITMAP
00
3C
50
50
78
90
90
9C
00
00
ENDCHAR
STARTCHAR 199
ENCODING 199
SWIDTH 450 0
DWIDTH 6 0
BBX 6 10 0 -2
BITMAP
00
70
88
80
80
80
88
70
20
40
ENDCHAR
STARTCHAR 200
ENCODING 200
SWIDTH 450 0
DWIDTH 6 0
BBX 6 10 0 -2
BITMAP
40
20
00
F8
80
F0
80
F8
00
00
ENDCHAR
STARTCHAR 201
ENCODING 201
SWIDTH 450 0
DWIDTH 6 0
BBX 6 10 0 -2
BITMAP
20
40
00
F8
80
F0
80
F8
00
00
ENDCHAR
STARTCHAR 202
ENCODING 202
SWIDTH 450 0
DWIDTH 6 0
BBX 6 10 0 -2
BITMAP
20
50
00
F8
80
F0
80
F8
00
00
ENDCHAR
STARTCHAR 203
ENCODING 203
SWIDTH 450 0
DWIDTH 6 0
BBX 6 10 0 -2
BITMAP
00
50
00
F8
80
F0
80
F8
00
00
ENDCHAR
STARTCHAR 204
ENCODING 204
SWIDTH 450 0
DWIDTH 6 0
BBX 6 10 0 -2
BITMAP
40
20
00
70
20
20
20
70
00
00
ENDCHAR
STARTCHAR 205
ENCODING 205
SWIDTH 450 0
DWIDTH 6 0
BBX 6 10 0 -2
BITMAP
20
40
00
70
20
20
20
70
00
00
ENDCHAR
STARTCHAR 206
ENCODING 206
SWIDTH 450 0
DWIDTH 6 0
BBX 6 10 0 -2
BITMAP
20
50
00
70
20
20
20
70
00
00
ENDCHAR
STARTCHAR 207
ENCODING 207
SWIDTH 450 0
DWIDTH 6 0
BBX 6 10 0 -2
BITMAP
00
50
00
70
20
20
20
70
00
00
ENDCHAR
STARTCHAR 208
ENCODING 208
SWIDTH 450 0
DWIDTH 6 0
BBX 6 10 0 -2
BITMAP
00
70
48
44
F4
44
48
70
00
00
ENDCHAR
STARTCHAR 209
ENCODING 209
SWIDTH 450 0
DWIDTH 6 0
BBX 6 10 0 -2
BITMAP
28
50
00
C8
A8
A8
98
98
00
00
ENDCHAR
STARTCHAR 210
ENCODING 210
SWIDTH 450 0
DWIDTH 6 0
BBX 6 10 0 -2
BITMAP
40
20
00
70
88
88
88
70
00
00
ENDCHAR
STARTCHAR 211
ENCODING 211
SWIDTH 450 0
DWIDTH 6 0
BBX 6 10 0 -2
BITMAP
20
40
00
70
88
88
88
70
00
00
ENDCHAR
STARTCHAR 212
ENCODING 212
SWIDTH 450 0
DWIDTH 6 0
BBX 6 10 0 -2
BITMAP
20
50
00
70
88
88
88
70
00
00
ENDCHAR
STARTCHAR 213
ENCODING 213
SWIDTH 450 0
DWIDTH 6 0
BBX 6 10 0 -2
BITMAP
28
50
00
70
88
88
88
70
00
00
ENDCHAR
STARTCHAR 214
ENCODING 214
SWIDTH 450 0
DWIDTH 6 0
BBX 6 10 0 -2
BITMAP
00
50
00
70
88
88
88
70
00
00
ENDCHAR
STARTCHAR 215
ENCODING 215
SWIDTH 450 0
DWIDTH 6 0
BBX 6 10 0 -2
BITMAP
00
00
88
50
20
50
88
00
00
00
ENDCHAR
STARTCHAR 216
ENCODING 216
SWIDTH 450 0
DWIDTH 6 0
BBX 6 10 0 -2
BITMAP
00
00
34
48
58
68
48
B0
00
00
ENDCHAR
STARTCHAR 217
ENCODING 217
SWIDTH 450 0
DWIDTH 6 0
BBX 6 10 0 -2
BITMAP
40
20
00
88
88
88
88
70
00
00
ENDCHAR
STARTCHAR 218
ENCODING 218
SWIDTH 450 0
DWIDTH 6 0
BBX 6 10 0 -2
BITMAP
20
40
00
88
88
88
88
70
00
00
ENDCHAR
STARTCHAR 219
ENCODING 219
SWIDTH 450 0
DWIDTH 6 0
BBX 6 10 0 -2
BITMAP
20
50
00
88
88
88
88
70
00
00
ENDCHAR
STARTCHAR 220
ENCODING 220
SWIDTH 450 0
DWIDTH 6 0
BBX 6 10 0 -2
BITMAP
00
50
00
88
88
88
88
70
00
00
ENDCHAR
STARTCHAR 221
ENCODING 221
SWIDTH 450 0
DWIDTH 6 0
BBX 6 10 0 -2
BITMAP
10
20
88
88
88
70
20
20
00
00
ENDCHAR
STARTCHAR 222
ENCODING 222
SWIDTH 450 0
DWIDTH 6 0
BBX 6 10 0 -2
BITMAP
00
40
40
70
48
48
70
40
40
00
ENDCHAR
STARTCHAR 223
ENCODING 223
SWIDTH 450 0
DWIDTH 6 0
BBX 6 10 0 -2
BITMAP
00
70
48
48
70
48
48
70
80
00
ENDCHAR
STARTCHAR 224
ENCODING 224
SWIDTH 450 0
DWIDTH 6 0
BBX 6 10 0 -2
BITMAP
40
20
00
70
08
78
88
78
00
00
ENDCHAR
STARTCHAR 225
ENCODING 225
SWIDTH 450 0
DWIDTH 6 0
BBX 6 10 0 -2
BITMAP
20
40
00
70
08
78
88
78
00
00
ENDCHAR
STARTCHAR 226
ENCODING 226
SWIDTH 450 0
DWIDTH 6 0
BBX 6 10 0 -2
BITMAP
20
50
00
70
08
78
88
78
00
00
ENDCHAR
STARTCHAR 227
ENCODING 227
SWIDTH 450 0
DWIDTH 6 0
BBX 6 10 0 -2
BITMAP
28
50
00
70
08
78
88
78
00
00
ENDCHAR
STARTCHAR 228
ENCODING 228
SWIDTH 450 0
DWIDTH 6 0
BBX 6 10 0 -2
BITMAP
00
50
00
70
08
78
88
78
00
00
ENDCHAR
STARTCHAR 229
ENCODING 229
SWIDTH 450 0
DWIDTH 6 0
BBX 6 10 0 -2
BITMAP
20
50
20
70
08
78
88
78
00
00
ENDCHAR
STARTCHAR 230
ENCODING 230
SWIDTH 450 0
DWIDTH 6 0
BBX 6 10 0 -2
BITMAP
00
00
00
68
14
78
90
6C
00
00
ENDCHAR
STARTCHAR 231
ENCODING 231
SWIDTH 450 0
DWIDTH 6 0
BBX 6 10 0 -2
BITMAP
00
00
00
78
80
80
80
78
20
40
ENDCHAR
STARTCHAR 232
ENCODING 232
SWIDTH 450 0
DWIDTH 6 0
BBX 6 10 0 -2
BITMAP
40
20
00
70
88
F8
80
78
00
00
ENDCHAR
STARTCHAR 233
ENCODING 233
SWIDTH 450 0
DWIDTH 6 0
BBX 6 10 0 -2
BITMAP
20
40
00
70
88
F8
80
78
00
00
ENDCHAR
STARTCHAR 234
ENCODING 234
SWIDTH 450 0
DWIDTH 6 0
BBX 6 10 0 -2
BITMAP
20
50
00
70
88
F8
80
78
00
00
ENDCHAR
STARTCHAR 235
ENCODING 235
SWIDTH 450 0
DWIDTH 6 0
BBX 6 10 0 -2
BITMAP
00
50
00
70
88
F8
80
78
00
00
ENDCHAR
STARTCHAR 236
ENCODING 236
SWIDTH 450 0
DWIDTH 6 0
BBX 6 10 0 -2
BITMAP
40
20
00
60
20
20
20
20
00
00
ENDCHAR
STARTCHAR 237
ENCODING 237
SWIDTH 450 0
DWIDTH 6 0
BBX 6 10 0 -2
BITMAP
20
40
00
60
20
20
20
20
00
00
ENDCHAR
STARTCHAR 238
ENCODING 238
SWIDTH 450 0
DWIDTH 6 0
BBX 6 10 0 -2
BITMAP
20
50
00
60
20
20
20
20
00
00
ENDCHAR
STARTCHAR 239
ENCODING 239
SWIDTH 450 0
DWIDTH 6 0
BBX 6 10 0 -2
BITMAP
00
50
00
60
20
20
20
20
00
00
ENDCHAR
STARTCHAR 240
ENCODING 240
SWIDTH 450 0
DWIDTH 6 0
BBX 6 10 0 -2
BITMAP
00
68
10
08
78
88
88
70
00
00
ENDCHAR
STARTCHAR 241
ENCODING 241
SWIDTH 450 0
DWIDTH 6 0
BBX 6 10 0 -2
BITMAP
28
50
00
F0
88
88
88
88
00
00
ENDCHAR
STARTCHAR 242
ENCODING 242
SWIDTH 450 0
DWIDTH 6 0
BBX 6 10 0 -2
BITMAP
40
20
00
70
88
88
88
70
00
00
ENDCHAR
STARTCHAR 243
ENCODING 243
SWIDTH 450 0
DWIDTH 6 0
BBX 6 10 0 -2
BITMAP
20
40
00
70
88
88
88
70
00
00
ENDCHAR
STARTCHAR 244
ENCODING 244
SWIDTH 450 0
DWIDTH 6 0
BBX 6 10 0 -2
BITMAP
20
50
00
70
88
88
88
70
00
00
ENDCHAR
STARTCHAR 245
ENCODING 245
SWIDTH 450 0
DWIDTH 6 0
BBX 6 10 0 -2
BITMAP
50
A0
00
70
88
88
88
70
00
00
ENDCHAR
STARTCHAR 246
ENCODING 246
SWIDTH 450 0
DWIDTH 6 0
BBX 6 10 0 -2
BITMAP
00
50
00
70
88
88
88
70
00
00
ENDCHAR
STARTCHAR 247
ENCODING 247
SWIDTH 450 0
DWIDTH 6 0
BBX 6 10 0 -2
BITMAP
00
00
20
00
F8
00
20
00
00
00
ENDCHAR
STARTCHAR 248
ENCODING 248
SWIDTH 450 0
DWIDTH 6 0
BBX 6 10 0 -2
BITMAP
00
00
34
48
58
68
48
B0
00
00
ENDCHAR
STARTCHAR 249
ENCODING 249
SWIDTH 450 0
DWIDTH 6 0
BBX 6 10 0 -2
BITMAP
40
20
00
88
88
88
88
78
00
00
ENDCHAR
STARTCHAR 250
ENCODING 250
SWIDTH 450 0
DWIDTH 6 0
BBX 6 10 0 -2
BITMAP
20
40
00
88
88
88
88
78
00
00
ENDCHAR
STARTCHAR 251
ENCODING 251
SWIDTH 450 0
DWIDTH 6 0
BBX 6 10 0 -2
BITMAP
20
50
00
88
88
88
88
78
00
00
ENDCHAR
STARTCHAR 252
ENCODING 252
SWIDTH 450 0
DWIDTH 6 0
BBX 6 10 0 -2
BITMAP
00
50
00
88
88
88
88
78
00
00
ENDCHAR
STARTCHAR 253
ENCODING 253
SWIDTH 450 0
DWIDTH 6 0
BBX 6 10 0 -2
BITMAP
20
40
00
88
88
88
88
78
08
70
ENDCHAR
STARTCHAR 254
ENCODING 254
SWIDTH 450 0
DWIDTH 6 0
BBX 6 10 0 -2
BITMAP
00
80
80
F0
88
88
88
F0
80
80
ENDCHAR
STARTCHAR 255
ENCODING 255
SWIDTH 450 0
DWIDTH 6 0
BBX 6 10 0 -2
BITMAP
00
50
00
88
88
88
88
78
08
70
ENDCHAR
STARTCHAR char955
ENCODING 955
SWIDTH 450 0
DWIDTH 6 0
BBX 6 10 0 -2
BITMAP
00
C0
20
20
50
50
88
88
00
00
ENDCHAR
STARTCHAR char960
ENCODING 960
SWIDTH 450 0
DWIDTH 6 0
BBX 6 10 0 -2
BITMAP
00
00
00
F8
50
50
50
98
00
00
ENDCHAR
STARTCHAR char9642
ENCODING 9642
SWIDTH 450 0
DWIDTH 6 0
BBX 6 10 0 -2
BITMAP
00
00
00
00
70
70
70
00
00
00
ENDCHAR
STARTCHAR char9652
ENCODING 9652
SWIDTH 450 0
DWIDTH 6 0
BBX 6 10 0 -2
BITMAP
00
00
00
00
20
20
70
70
00
00
ENDCHAR
STARTCHAR char9656
ENCODING 9656
SWIDTH 450 0
DWIDTH 6 0
BBX 6 10 0 -2
BITMAP
00
00
00
40
60
70
60
40
00
00
ENDCHAR
STARTCHAR char9662
ENCODING 9662
SWIDTH 450 0
DWIDTH 6 0
BBX 6 10 0 -2
BITMAP
00
00
00
00
70
70
20
20
00
00
ENDCHAR
STARTCHAR char9666
ENCODING 9666
SWIDTH 450 0
DWIDTH 6 0
BBX 6 10 0 -2
BITMAP
00
00
00
10
30
70
30
10
00
00
ENDCHAR
STARTCHAR char9670
ENCODING 9670
SWIDTH 450 0
DWIDTH 6 0
BBX 6 10 0 -2
BITMAP
00
00
00
00
20
70
20
00
00
00
ENDCHAR
STARTCHAR char10003
ENCODING 10003
SWIDTH 450 0
DWIDTH 6 0
BBX 6 10 0 -2
BITMAP
00
04
08
08
10
A0
A0
40
00
00
ENDCHAR
STARTCHAR char10007
ENCODING 10007
SWIDTH 450 0
DWIDTH 6 0
BBX 6 10 0 -2
BITMAP
00
48
50
20
30
48
40
80
00
00
ENDCHAR
STARTCHAR uniE0A0
ENCODING 57504
SWIDTH 450 0
DWIDTH 6 0
BBX 6 10 0 -2
BITMAP
80
88
9C
BC
88
98
30
60
C0
C0
ENDCHAR
STARTCHAR uniE0A1
ENCODING 57505
SWIDTH 450 0
DWIDTH 6 0
BBX 6 10 0 -2
BITMAP
80
80
80
80
E0
00
24
34
2C
24
ENDCHAR
STARTCHAR uniE0A2
ENCODING 57506
SWIDTH 450 0
DWIDTH 6 0
BBX 6 10 0 -2
BITMAP
00
30
48
48
FC
CC
CC
78
30
00
ENDCHAR
STARTCHAR uniE0B0
ENCODING 57520
SWIDTH 450 0
DWIDTH 6 0
BBX 6 10 0 -2
BITMAP
80
C0
E0
F0
F8
F8
F0
E0
C0
80
ENDCHAR
STARTCHAR uniE0B1
ENCODING 57521
SWIDTH 450 0
DWIDTH 6 0
BBX 6 10 0 -2
BITMAP
80
40
20
10
08
08
10
20
40
80
ENDCHAR
STARTCHAR uniE0B2
ENCODING 57522
SWIDTH 450 0
DWIDTH 6 0
BBX 6 10 0 -2
BITMAP
04
0C
1C
3C
7C
7C
3C
1C
0C
04
ENDCHAR
STARTCHAR uniE0B3
ENCODING 57523
SWIDTH 450 0
DWIDTH 6 0
BBX 6 10 0 -2
BITMAP
04
08
10
20
40
40
20
10
08
04
ENDCHAR
STARTCHAR layout-tall
ENCODING 60928
SWIDTH 450 0
DWIDTH 6 0
BBX 6 10 0 -2
BITMAP
00
DC
DC
DC
C0
DC
DC
DC
00
00
ENDCHAR
STARTCHAR layout-mtall
ENCODING 60929
SWIDTH 450 0
DWIDTH 6 0
BBX 6 10 0 -2
BITMAP
00
FC
FC
00
DC
DC
DC
DC
00
00
ENDCHAR
STARTCHAR layout-full
ENCODING 60930
SWIDTH 450 0
DWIDTH 6 0
BBX 6 10 0 -2
BITMAP
00
FC
FC
FC
FC
FC
FC
FC
00
00
ENDCHAR
STARTCHAR layout-grid
ENCODING 60931
SWIDTH 450 0
DWIDTH 6 0
BBX 6 10 0 -2
BITMAP
00
DC
DC
DC
00
DC
DC
DC
00
00
ENDCHAR
STARTCHAR layout-tall-white
ENCODING 60944
SWIDTH 450 0
DWIDTH 6 0
BBX 6 10 0 -2
BITMAP
00
FC
A4
A4
BC
A4
A4
FC
00
00
ENDCHAR
STARTCHAR layout-mtall-white
ENCODING 60945
SWIDTH 450 0
DWIDTH 6 0
BBX 6 10 0 -2
BITMAP
00
FC
84
84
FC
A4
A4
FC
00
00
ENDCHAR
STARTCHAR layout-full-white
ENCODING 60946
SWIDTH 450 0
DWIDTH 6 0
BBX 6 10 0 -2
BITMAP
00
FC
84
84
84
84
84
FC
00
00
ENDCHAR
STARTCHAR layout-grid-white
ENCODING 60947
SWIDTH 450 0
DWIDTH 6 0
BBX 6 10 0 -2
BITMAP
00
FC
A4
A4
FC
A4
A4
FC
00
00
ENDCHAR
ENDFONT
